<svg width="1200" height="630" viewBox="0 0 1200 630" fill="none" xmlns="http://www.w3.org/2000/svg">
<rect width="1200" height="630" fill="#37404C"/>
<rect x="479.301" y="129.239" width="241.399" height="241.399" rx="30.1748" fill="#37404C"/>
<path fill-rule="evenodd" clip-rule="evenodd" d="M542.252 188.601C549.641 180.82 558.114 175.596 567.655 172.908C574.201 171.062 578.613 165.129 578.613 158.517C578.613 148.491 568.69 141.182 558.763 143.99C551.211 146.122 543.95 149.266 536.991 153.432C522.658 162.004 511.315 173.447 502.958 187.759C499.375 193.896 496.569 200.186 494.528 206.626C491.131 217.358 499.221 228.251 510.797 228.251C518.643 228.251 525.509 223.067 527.346 215.673C529.888 205.438 534.842 196.407 542.252 188.601Z" fill="#E5007D"/>
<path fill-rule="evenodd" clip-rule="evenodd" d="M667.966 296.678C662.667 306.603 655.349 314.399 646.017 320.078C641.899 322.586 637.621 324.513 633.184 325.877C626.482 327.935 621.879 333.909 621.879 340.745C621.879 351.071 632.045 358.649 642.236 355.765C649.674 353.664 656.794 350.605 663.585 346.579C677.879 338.117 689.167 326.737 697.439 312.443C701.169 306.002 704.05 299.33 706.095 292.423C709.2 281.928 700.791 271.517 689.562 271.517C682.109 271.517 675.641 276.232 673.318 283.046C671.742 287.672 670.275 292.355 667.966 296.678Z" fill="#E5007D"/>
<path fill-rule="evenodd" clip-rule="evenodd" d="M542.23 310.263C535.061 302.619 530.174 293.86 527.554 284.004C525.599 276.652 518.759 271.517 510.929 271.517C499.272 271.517 491.118 282.481 494.528 293.29C496.565 299.754 499.359 306.05 502.913 312.173C511.275 326.584 522.625 338.039 536.966 346.531C543.792 350.575 550.904 353.645 558.301 355.757C568.456 358.655 578.613 351.116 578.613 340.85C578.613 334.085 574.105 328.044 567.429 326.106C557.969 323.364 549.565 318.089 542.23 310.263Z" fill="white"/>
<path fill-rule="evenodd" clip-rule="evenodd" d="M646.089 178.838C655.163 184.318 662.335 191.814 667.603 201.32C670.145 205.91 672.071 210.729 673.386 215.777C675.287 223.101 682.018 228.251 689.78 228.251C701.112 228.251 709.292 217.616 706.018 207.063C705.077 204.033 703.968 201.039 702.687 198.078C697.846 186.88 691.128 176.958 682.541 168.307C673.953 159.655 663.964 152.839 652.576 147.862C649.156 146.37 645.674 145.1 642.133 144.059C632.068 141.095 621.879 148.244 621.879 158.475V158.554C621.879 165.209 626.359 171.052 632.899 172.992C637.474 174.347 641.871 176.292 646.089 178.838Z" fill="white"/>
<text x="600" y="460" text-anchor="middle" font-family="system-ui, -apple-system, sans-serif" font-size="56" font-weight="700" fill="white">TEXT_GOES_HERE</text>
<text x="600" y="520" text-anchor="middle" font-family="system-ui, -apple-system, sans-serif" font-size="28" font-weight="400" fill="#E5007D">concepts.dsebastien.net</text>
</svg>
